<?xml version="1.0" encoding="utf-8"?>
<!-- Generator: Adobe Illustrator 23.0.1, SVG Export Plug-In . SVG Version: 6.00 Build 0)  -->
<svg version="1.1" id="Capa_1" xmlns="http://www.w3.org/2000/svg" xmlns:xlink="http://www.w3.org/1999/xlink" x="0px" y="0px"
	 viewBox="0 0 253.39 101.53" style="enable-background:new 0 0 253.39 101.53;" xml:space="preserve">
<style type="text/css">
	.st0{clip-path:url(#SVGID_2_);fill:#010001;}
	.st1{clip-path:url(#SVGID_4_);fill:#FFFFFF;}
</style>
<g>
	<defs>
		<rect id="SVGID_1_" x="-272.39" width="252.39" height="100.96"/>
	</defs>
	<clipPath id="SVGID_2_">
		<use xlink:href="#SVGID_1_"  style="overflow:visible;"/>
	</clipPath>
	<path class="st0" d="M-202.97,75.94c-11.18,7.25-22.8,6.86-22.8,6.86s-0.32-1.48-0.19-4.04c0.13-2.56,1.52-1.84,2.53-3.85
		c0.37-0.73,0.68-1.24,1.25-2.96c0.02-0.07-0.67-12.31-0.85-17.5c-0.09-2.8-0.62-7.47-1.24-12.01c-0.36-2.69-1.18-4.82-1.56-7.38
		c-0.55-3.69-1.18-7.85-1.18-7.85c-0.45,1.17-1.11,5.57-1.76,10.53c-0.31,2.38-0.63,4.89-0.92,7.24c-0.62,4.97-2.17,18.28-2.41,19
		c-0.36,1.1-0.39-0.29-0.39-0.29s0.92-13.96,1.2-20.08c0.13-2.99,0.36-6.28,0.73-9.44c0.28-2.37,0.64-4.66,1.11-6.7
		c0,0,1.6-4.83,2.11-4.92c0.51-0.1,2.35,3.04,2.98,5.84c1.41,6.31,2.24,7.11,3.32,13.74c1.02,6.3,1.95,11.56,2.08,12.42
		c0.46,3.12,0.23,12.87-0.56,16.75c-0.19,1.06-0.24,1.45-0.93,2.15c-1.62,1.64-2.77,3.59-2.77,4.87c0,1.28-0.21,1.25,0.09,1.99
		c0,0,2.14,3.2,14.42-4.12c0,0,3.84-2.01,3.84-6.45v-44.9c0,0-12.18-4.12-21.56-4.12s-21.13,4.11-21.13,4.11v44.71
		c0,2.75,0.4,7.91,4.33,9.67c0,0-10.46-3.58-10.46-9.73V21.03c0,0,15.97-2.94,27.27-2.94c11.3,0,27.56,2.94,27.56,2.94v48.51
		C-198.87,73.71-202.97,75.94-202.97,75.94"/>
	<path class="st0" d="M-51.17,38.41c-1.12,0.62-2.62,0.93-4.5,0.93c-1.9,0-3.38-0.57-4.43-1.73c-1.05-1.15-1.58-2.76-1.58-4.82
		c0-2.08,0.53-3.73,1.58-4.96c1.02-1.18,2.38-1.78,4.07-1.78c0.75,0,1.4,0.08,1.94,0.25V21.1h2.92V38.41z M-54.08,37.19v-9.3
		c-0.38-0.11-0.82-0.17-1.29-0.17c-2.27,0-3.4,1.64-3.4,4.91c0,3.23,1.06,4.84,3.19,4.84C-54.89,37.48-54.39,37.38-54.08,37.19"/>
	<path class="st0" d="M-37.84,32.56l-7.91,1.15c0.24,2.39,1.41,3.59,3.52,3.59c1.25,0,2.33-0.24,3.26-0.71l0.69,1.84
		c-1.1,0.61-2.52,0.91-4.26,0.91c-1.85,0-3.32-0.58-4.39-1.75c-1.07-1.17-1.61-2.82-1.61-4.98c0-2.09,0.49-3.72,1.47-4.9
		c0.98-1.17,2.33-1.76,4.04-1.76c1.73,0,3.03,0.56,3.93,1.69C-38.19,28.77-37.78,30.41-37.84,32.56 M-40.57,31.42
		c0-2.44-0.85-3.67-2.54-3.67c-0.9,0-1.58,0.36-2.06,1.08c-0.53,0.78-0.78,1.92-0.74,3.4L-40.57,31.42z"/>
	<rect x="-189.38" y="45.22" class="st0" width="4.58" height="28.34"/>
	<path class="st0" d="M-163.66,63.45c0,3.13-0.69,5.62-2.07,7.47c-1.5,2-3.62,3-6.35,3c-2.73,0-4.84-1-6.35-3
		c-1.38-1.85-2.07-4.34-2.07-7.47c0-3.15,0.69-5.66,2.07-7.51c1.5-2,3.62-3,6.35-3c2.75,0,4.87,1,6.35,3
		C-164.35,57.8-163.66,60.3-163.66,63.45 M-168.2,63.42c0-5.06-1.29-7.59-3.87-7.59c-2.58,0-3.87,2.53-3.87,7.59
		c0,4.93,1.29,7.4,3.87,7.4C-169.49,70.81-168.2,68.35-168.2,63.42"/>
	<path class="st0" d="M-147.95,67.73c0,1.7-0.66,3.15-1.99,4.36c-1.33,1.2-3.07,1.8-5.22,1.8c-2.3,0-4.17-0.49-5.6-1.46l1.2-2.93
		c0.98,0.78,2.24,1.17,3.8,1.17c0.93,0,1.68-0.27,2.25-0.81c0.58-0.54,0.86-1.22,0.86-2.05c0-0.85-0.23-1.52-0.68-2.01
		c-0.45-0.49-1.21-0.93-2.29-1.33c-3.08-1.18-4.62-3.07-4.62-5.67c0-1.65,0.59-3.04,1.78-4.17c1.19-1.13,2.73-1.69,4.63-1.69
		c2.05,0,3.8,0.48,5.25,1.43l-1.12,2.67c-0.93-0.75-2-1.13-3.22-1.13c-0.9,0-1.61,0.26-2.12,0.77c-0.51,0.51-0.77,1.14-0.77,1.89
		c0,1.33,1,2.39,3,3.19C-149.56,63.06-147.95,65.05-147.95,67.73"/>
	<path class="st0" d="M-114.14,73.56h-5.35l-2.16-7.22h-9.06l-2.24,7.22h-4.65l9.31-28.09h4.9L-114.14,73.56z M-122.39,63.31
		l-2.9-9.89c-0.41-1.39-0.65-2.52-0.73-3.39h-0.08c-0.14,0.74-0.4,1.87-0.78,3.39l-3.02,9.89H-122.39z"/>
	<path class="st0" d="M-95.29,73.56h-4.58V59.21c0-2.25-1.21-3.38-3.64-3.38c-1.15,0-2.2,0.19-3.15,0.56v17.16h-4.58V54.41
		c2.08-0.98,4.72-1.46,7.92-1.46c2.83,0,4.92,0.63,6.27,1.88c1.18,1.05,1.76,2.49,1.76,4.32V73.56z"/>
	<path class="st0" d="M-74.64,72.46c-1.75,0.97-4.11,1.46-7.06,1.46c-2.98,0-5.3-0.9-6.95-2.7c-1.65-1.8-2.48-4.32-2.48-7.55
		c0-3.25,0.83-5.84,2.48-7.77c1.6-1.85,3.73-2.78,6.39-2.78c1.18,0,2.19,0.13,3.04,0.38v-8.19h4.58V72.46z M-79.22,70.55V55.98
		c-0.6-0.17-1.28-0.26-2.03-0.26c-3.56,0-5.33,2.56-5.33,7.7c0,5.06,1.66,7.58,5,7.58C-80.48,71-79.7,70.85-79.22,70.55"/>
	<path class="st0" d="M-53.78,63.3l-12.39,1.8c0.37,3.76,2.21,5.63,5.52,5.63c1.95,0,3.66-0.38,5.11-1.13l1.09,2.89
		c-1.73,0.95-3.96,1.42-6.68,1.42c-2.9,0-5.2-0.91-6.87-2.74c-1.68-1.83-2.52-4.43-2.52-7.81c0-3.28,0.77-5.84,2.31-7.68
		c1.54-1.84,3.65-2.76,6.33-2.76c2.71,0,4.76,0.88,6.16,2.65C-54.33,57.35-53.68,59.93-53.78,63.3 M-58.07,61.5
		c0-3.83-1.33-5.75-3.98-5.75c-1.4,0-2.48,0.56-3.23,1.69c-0.83,1.23-1.21,3.01-1.16,5.33L-58.07,61.5z"/>
	<path class="st0" d="M-38.03,67.73c0,1.7-0.66,3.15-1.99,4.36c-1.33,1.2-3.07,1.8-5.22,1.8c-2.3,0-4.17-0.49-5.6-1.46l1.2-2.93
		c0.98,0.78,2.24,1.17,3.8,1.17c0.93,0,1.68-0.27,2.25-0.81c0.58-0.54,0.86-1.22,0.86-2.05c0-0.85-0.22-1.52-0.67-2.01
		c-0.45-0.49-1.21-0.93-2.29-1.33c-3.08-1.18-4.62-3.07-4.62-5.67c0-1.65,0.59-3.04,1.78-4.17c1.19-1.13,2.73-1.69,4.63-1.69
		c2.05,0,3.8,0.48,5.25,1.43l-1.12,2.67c-0.92-0.75-2-1.13-3.22-1.13c-0.9,0-1.6,0.26-2.12,0.77c-0.51,0.51-0.77,1.14-0.77,1.89
		c0,1.33,1,2.39,3,3.19C-39.65,63.06-38.03,65.05-38.03,67.73"/>
	<path class="st0" d="M-165.2,39.15h-2.92V30c0-1.44-0.77-2.16-2.32-2.16c-0.73,0-1.41,0.12-2.01,0.36v10.95h-2.92V26.93
		c1.32-0.62,3.01-0.93,5.05-0.93c1.8,0,3.13,0.4,4,1.2c0.75,0.67,1.13,1.59,1.13,2.76V39.15z"/>
	<path class="st0" d="M-158.91,22.56c0,0.4-0.16,0.74-0.47,1.02c-0.31,0.28-0.69,0.42-1.14,0.42c-0.45,0-0.83-0.14-1.14-0.42
		c-0.31-0.28-0.47-0.62-0.47-1.02c0-0.4,0.16-0.74,0.47-1.03c0.31-0.29,0.69-0.43,1.14-0.43c0.45,0,0.83,0.14,1.14,0.42
		C-159.07,21.8-158.91,22.15-158.91,22.56 M-159.06,39.15h-2.92V26.23h2.92V39.15z"/>
	<path class="st0" d="M-145.76,26.23l-4.15,12.92h-2.78l-4.22-12.92h3.12l2.28,8.34c0.18,0.62,0.28,1.21,0.31,1.77h0.05
		c0.08-0.46,0.19-1.05,0.34-1.77l2.32-8.34H-145.76z"/>
	<path class="st0" d="M-133.52,32.6l-7.91,1.15c0.24,2.39,1.41,3.59,3.52,3.59c1.25,0,2.33-0.24,3.26-0.71l0.7,1.84
		c-1.1,0.61-2.52,0.91-4.27,0.91c-1.85,0-3.32-0.58-4.39-1.75c-1.07-1.17-1.6-2.82-1.6-4.98c0-2.09,0.49-3.72,1.47-4.9
		c0.98-1.17,2.33-1.76,4.04-1.76c1.72,0,3.04,0.56,3.93,1.69C-133.88,28.81-133.46,30.45-133.52,32.6 M-136.25,31.46
		c0-2.44-0.85-3.67-2.54-3.67c-0.9,0-1.58,0.36-2.06,1.08c-0.53,0.78-0.78,1.92-0.74,3.4L-136.25,31.46z"/>
	<path class="st0" d="M-124.64,26.01l-0.58,2.14c-0.43-0.14-0.88-0.22-1.34-0.22c-0.56,0-1.02,0.1-1.39,0.31v10.9h-2.92V26.93
		C-129.45,26.24-127.38,25.94-124.64,26.01"/>
	<path class="st0" d="M-115.33,35.44c0,1.09-0.42,2.01-1.27,2.78c-0.85,0.77-1.96,1.15-3.33,1.15c-1.47,0-2.66-0.31-3.57-0.94
		l0.77-1.87c0.62,0.5,1.43,0.75,2.42,0.75c0.59,0,1.07-0.17,1.44-0.52c0.37-0.34,0.55-0.78,0.55-1.31c0-0.54-0.14-0.97-0.43-1.28
		c-0.29-0.31-0.77-0.6-1.46-0.85c-1.96-0.75-2.95-1.96-2.95-3.62c0-1.05,0.38-1.94,1.14-2.66c0.76-0.72,1.74-1.08,2.96-1.08
		c1.31,0,2.43,0.3,3.35,0.91l-0.72,1.7c-0.59-0.48-1.28-0.72-2.06-0.72c-0.58,0-1.03,0.16-1.35,0.49c-0.33,0.33-0.49,0.73-0.49,1.21
		c0,0.85,0.64,1.53,1.92,2.04C-116.36,32.46-115.33,33.73-115.33,35.44"/>
	<path class="st0" d="M-109.62,22.56c0,0.4-0.16,0.74-0.47,1.02c-0.31,0.28-0.69,0.42-1.14,0.42c-0.45,0-0.83-0.14-1.14-0.42
		c-0.31-0.28-0.47-0.62-0.47-1.02c0-0.4,0.16-0.74,0.47-1.03c0.31-0.29,0.69-0.43,1.14-0.43c0.45,0,0.83,0.14,1.14,0.42
		C-109.77,21.8-109.62,22.15-109.62,22.56 M-109.77,39.15h-2.92V26.23h2.92V39.15z"/>
	<path class="st0" d="M-96.5,38.45c-1.12,0.62-2.62,0.93-4.5,0.93c-1.9,0-3.38-0.58-4.43-1.73c-1.05-1.15-1.58-2.76-1.58-4.82
		c0-2.08,0.53-3.73,1.58-4.96c1.02-1.18,2.38-1.77,4.07-1.77c0.75,0,1.4,0.08,1.94,0.25v-5.21h2.92V38.45z M-99.42,37.23v-9.3
		c-0.38-0.11-0.81-0.17-1.29-0.17c-2.27,0-3.4,1.64-3.4,4.91c0,3.23,1.06,4.84,3.19,4.84C-100.23,37.51-99.72,37.42-99.42,37.23"/>
	<path class="st0" d="M-84.06,38.45c-1.16,0.62-2.72,0.93-4.67,0.93c-3.51,0-5.27-1.31-5.27-3.93c0-1.56,0.71-2.74,2.13-3.52
		c1.12-0.61,2.81-1.02,5.08-1.24V30c0-1.42-0.85-2.13-2.56-2.13c-1.07,0-2.15,0.26-3.23,0.78l-0.67-1.68
		c1.34-0.65,2.82-0.98,4.43-0.98c3.18,0,4.76,1.49,4.76,4.45V38.45z M-86.79,37.4v-5.32c-1.53,0.19-2.61,0.49-3.25,0.89
		c-0.8,0.5-1.2,1.29-1.2,2.4c0,1.6,0.9,2.4,2.7,2.4C-87.86,37.76-87.27,37.64-86.79,37.4"/>
	<path class="st0" d="M-70.91,38.45c-1.12,0.62-2.62,0.93-4.5,0.93c-1.9,0-3.38-0.58-4.43-1.73c-1.05-1.15-1.58-2.76-1.58-4.82
		c0-2.08,0.53-3.73,1.58-4.96c1.02-1.18,2.38-1.77,4.08-1.77c0.75,0,1.4,0.08,1.94,0.25v-5.21h2.92V38.45z M-73.83,37.23v-9.3
		c-0.38-0.11-0.81-0.17-1.29-0.17c-2.27,0-3.4,1.64-3.4,4.91c0,3.23,1.06,4.84,3.19,4.84C-74.63,37.51-74.13,37.42-73.83,37.23"/>
	<path class="st0" d="M-189.42,21.17h3.11v13.89c0,1.53,0.82,2.29,2.47,2.29c0.78,0,1.49-0.13,2.14-0.38v-15.8h3.11v17.14
		c-1.41,0.66-3.2,0.99-5.37,0.99c-1.92,0-3.34-0.42-4.25-1.27c-0.8-0.71-1.2-1.69-1.2-2.93V21.17z"/>
</g>
<g>
	<defs>
		<rect id="SVGID_3_" x="0.5" y="0.29" width="252.39" height="100.96"/>
	</defs>
	<clipPath id="SVGID_4_">
		<use xlink:href="#SVGID_3_"  style="overflow:visible;"/>
	</clipPath>
	<path class="st1" d="M69.92,76.22c-11.18,7.25-22.8,6.86-22.8,6.86s-0.32-1.48-0.19-4.04c0.13-2.56,1.52-1.84,2.53-3.85
		c0.37-0.73,0.68-1.24,1.25-2.96c0.02-0.07-0.67-12.31-0.85-17.5c-0.09-2.8-0.62-7.47-1.24-12.01c-0.36-2.69-1.18-4.82-1.56-7.38
		c-0.55-3.69-1.18-7.85-1.18-7.85c-0.45,1.17-1.11,5.57-1.76,10.53c-0.31,2.38-0.63,4.89-0.92,7.24c-0.62,4.97-2.17,18.28-2.41,19
		c-0.36,1.1-0.39-0.29-0.39-0.29s0.92-13.96,1.2-20.08c0.13-2.99,0.36-6.28,0.73-9.44c0.28-2.37,0.64-4.66,1.11-6.7
		c0,0,1.6-4.83,2.11-4.92c0.51-0.1,2.35,3.04,2.98,5.84c1.41,6.31,2.24,7.11,3.32,13.74c1.02,6.3,1.95,11.56,2.08,12.42
		c0.46,3.12,0.23,12.87-0.56,16.75c-0.19,1.06-0.24,1.45-0.93,2.15c-1.62,1.64-2.77,3.59-2.77,4.87c0,1.28-0.21,1.25,0.09,1.99
		c0,0,2.14,3.2,14.42-4.12c0,0,3.84-2.01,3.84-6.45v-44.9c0,0-12.18-4.12-21.56-4.12s-21.13,4.11-21.13,4.11v44.71
		c0,2.75,0.4,7.91,4.33,9.67c0,0-10.46-3.58-10.46-9.73V21.31c0,0,15.97-2.94,27.27-2.94c11.3,0,27.56,2.94,27.56,2.94v48.51
		C74.02,74,69.92,76.22,69.92,76.22"/>
	<path class="st1" d="M221.72,38.7c-1.12,0.62-2.62,0.93-4.5,0.93c-1.9,0-3.38-0.57-4.43-1.73c-1.05-1.15-1.58-2.76-1.58-4.82
		c0-2.08,0.53-3.73,1.58-4.96c1.02-1.18,2.38-1.78,4.07-1.78c0.75,0,1.4,0.08,1.94,0.25v-5.21h2.92V38.7z M218.81,37.47v-9.3
		c-0.38-0.11-0.82-0.17-1.29-0.17c-2.27,0-3.4,1.64-3.4,4.91c0,3.23,1.06,4.84,3.19,4.84C218,37.76,218.5,37.67,218.81,37.47"/>
	<path class="st1" d="M235.05,32.85L227.14,34c0.24,2.39,1.41,3.59,3.52,3.59c1.25,0,2.33-0.24,3.26-0.71l0.69,1.84
		c-1.1,0.61-2.52,0.91-4.26,0.91c-1.85,0-3.32-0.58-4.39-1.75c-1.07-1.17-1.61-2.82-1.61-4.98c0-2.09,0.49-3.72,1.47-4.9
		c0.98-1.17,2.33-1.76,4.04-1.76c1.73,0,3.03,0.56,3.93,1.69C234.7,29.06,235.12,30.7,235.05,32.85 M232.32,31.71
		c0-2.44-0.85-3.67-2.54-3.67c-0.9,0-1.58,0.36-2.06,1.08c-0.53,0.78-0.78,1.92-0.74,3.4L232.32,31.71z"/>
	<rect x="83.51" y="45.51" class="st1" width="4.58" height="28.34"/>
	<path class="st1" d="M109.23,63.74c0,3.13-0.69,5.62-2.07,7.47c-1.5,2-3.62,3-6.35,3c-2.73,0-4.84-1-6.35-3
		c-1.38-1.85-2.07-4.34-2.07-7.47c0-3.15,0.69-5.66,2.07-7.51c1.5-2,3.62-3,6.35-3c2.75,0,4.87,1,6.35,3
		C108.55,58.08,109.23,60.59,109.23,63.74 M104.69,63.7c0-5.06-1.29-7.59-3.86-7.59c-2.58,0-3.87,2.53-3.87,7.59
		c0,4.93,1.29,7.4,3.87,7.4C103.4,71.1,104.69,68.64,104.69,63.7"/>
	<path class="st1" d="M124.94,68.02c0,1.7-0.66,3.15-1.99,4.36c-1.33,1.2-3.07,1.8-5.22,1.8c-2.3,0-4.17-0.49-5.6-1.46l1.2-2.93
		c0.98,0.78,2.24,1.17,3.8,1.17c0.93,0,1.68-0.27,2.25-0.81c0.58-0.54,0.86-1.22,0.86-2.05c0-0.85-0.23-1.52-0.68-2.01
		c-0.45-0.49-1.21-0.93-2.29-1.33c-3.08-1.18-4.62-3.07-4.62-5.67c0-1.65,0.59-3.04,1.78-4.17c1.19-1.13,2.73-1.69,4.63-1.69
		c2.05,0,3.8,0.48,5.25,1.43l-1.12,2.67c-0.93-0.75-2-1.13-3.22-1.13c-0.9,0-1.61,0.26-2.12,0.77c-0.51,0.51-0.77,1.14-0.77,1.89
		c0,1.33,1,2.39,3,3.19C123.33,63.35,124.94,65.34,124.94,68.02"/>
	<path class="st1" d="M158.75,73.84h-5.35l-2.16-7.22h-9.06l-2.24,7.22h-4.65l9.31-28.09h4.9L158.75,73.84z M150.51,63.6l-2.9-9.89
		c-0.41-1.39-0.65-2.52-0.73-3.39h-0.08c-0.14,0.74-0.4,1.87-0.78,3.39L143,63.6H150.51z"/>
	<path class="st1" d="M177.6,73.84h-4.58V59.5c0-2.25-1.21-3.38-3.64-3.38c-1.15,0-2.2,0.19-3.15,0.56v17.16h-4.58V54.69
		c2.08-0.98,4.72-1.46,7.92-1.46c2.83,0,4.92,0.63,6.27,1.88c1.18,1.05,1.76,2.49,1.76,4.32V73.84z"/>
	<path class="st1" d="M198.26,72.75c-1.75,0.97-4.11,1.46-7.06,1.46c-2.98,0-5.3-0.9-6.95-2.7c-1.65-1.8-2.48-4.32-2.48-7.55
		c0-3.25,0.83-5.84,2.48-7.77c1.6-1.85,3.73-2.78,6.39-2.78c1.18,0,2.19,0.13,3.04,0.38V45.6h4.58V72.75z M193.67,70.83V56.27
		c-0.6-0.17-1.28-0.26-2.03-0.26c-3.56,0-5.33,2.56-5.33,7.7c0,5.06,1.66,7.58,5,7.58C192.41,71.29,193.2,71.14,193.67,70.83"/>
	<path class="st1" d="M219.11,63.59l-12.39,1.8c0.37,3.76,2.21,5.63,5.52,5.63c1.95,0,3.66-0.38,5.11-1.13l1.09,2.89
		c-1.73,0.95-3.96,1.42-6.68,1.42c-2.9,0-5.2-0.91-6.87-2.74c-1.68-1.83-2.52-4.43-2.52-7.81c0-3.28,0.77-5.84,2.31-7.68
		c1.54-1.84,3.65-2.76,6.33-2.76c2.71,0,4.76,0.88,6.16,2.65C218.56,57.64,219.21,60.21,219.11,63.59 M214.82,61.79
		c0-3.83-1.33-5.75-3.98-5.75c-1.4,0-2.48,0.56-3.23,1.69c-0.83,1.23-1.21,3.01-1.16,5.33L214.82,61.79z"/>
	<path class="st1" d="M234.86,68.02c0,1.7-0.66,3.15-1.99,4.36c-1.33,1.2-3.07,1.8-5.22,1.8c-2.3,0-4.17-0.49-5.6-1.46l1.2-2.93
		c0.98,0.78,2.24,1.17,3.8,1.17c0.93,0,1.68-0.27,2.25-0.81c0.58-0.54,0.86-1.22,0.86-2.05c0-0.85-0.22-1.52-0.67-2.01
		c-0.45-0.49-1.21-0.93-2.29-1.33c-3.08-1.18-4.62-3.07-4.62-5.67c0-1.65,0.59-3.04,1.78-4.17c1.19-1.13,2.73-1.69,4.63-1.69
		c2.05,0,3.8,0.48,5.25,1.43l-1.12,2.67c-0.92-0.75-2-1.13-3.22-1.13c-0.9,0-1.6,0.26-2.12,0.77c-0.51,0.51-0.77,1.14-0.77,1.89
		c0,1.33,1,2.39,3,3.19C233.24,63.35,234.86,65.34,234.86,68.02"/>
	<path class="st1" d="M107.69,39.44h-2.92v-9.15c0-1.44-0.77-2.16-2.32-2.16c-0.73,0-1.41,0.12-2.01,0.36v10.95h-2.92V27.22
		c1.32-0.62,3.01-0.93,5.05-0.93c1.8,0,3.13,0.4,4,1.2c0.75,0.67,1.13,1.59,1.13,2.76V39.44z"/>
	<path class="st1" d="M113.98,22.85c0,0.4-0.16,0.74-0.47,1.02c-0.31,0.28-0.69,0.42-1.14,0.42c-0.45,0-0.83-0.14-1.14-0.42
		c-0.31-0.28-0.47-0.62-0.47-1.02c0-0.4,0.16-0.74,0.47-1.03c0.31-0.29,0.69-0.43,1.14-0.43c0.45,0,0.83,0.14,1.14,0.42
		C113.82,22.09,113.98,22.43,113.98,22.85 M113.83,39.44h-2.92V26.52h2.92V39.44z"/>
	<path class="st1" d="M127.13,26.52l-4.15,12.92h-2.78l-4.22-12.92h3.12l2.28,8.34c0.18,0.62,0.28,1.21,0.31,1.77h0.05
		c0.08-0.46,0.19-1.05,0.34-1.77l2.32-8.34H127.13z"/>
	<path class="st1" d="M139.37,32.89l-7.91,1.15c0.24,2.39,1.41,3.59,3.52,3.59c1.25,0,2.33-0.24,3.26-0.71l0.7,1.84
		c-1.1,0.61-2.52,0.91-4.27,0.91c-1.85,0-3.32-0.58-4.39-1.75c-1.07-1.17-1.6-2.82-1.6-4.98c0-2.09,0.49-3.72,1.47-4.9
		c0.98-1.17,2.33-1.76,4.04-1.76c1.72,0,3.04,0.56,3.93,1.69C139.02,29.1,139.43,30.74,139.37,32.89 M136.64,31.75
		c0-2.44-0.85-3.67-2.54-3.67c-0.9,0-1.58,0.36-2.06,1.08c-0.53,0.78-0.78,1.92-0.74,3.4L136.64,31.75z"/>
	<path class="st1" d="M148.25,26.3l-0.58,2.14c-0.43-0.14-0.88-0.22-1.34-0.22c-0.56,0-1.02,0.1-1.39,0.31v10.9h-2.92V27.21
		C143.44,26.53,145.52,26.22,148.25,26.3"/>
	<path class="st1" d="M157.56,35.72c0,1.09-0.42,2.01-1.27,2.78c-0.85,0.77-1.96,1.15-3.33,1.15c-1.47,0-2.66-0.31-3.57-0.94
		l0.77-1.87c0.62,0.5,1.43,0.75,2.42,0.75c0.59,0,1.07-0.17,1.44-0.52c0.37-0.34,0.55-0.78,0.55-1.31c0-0.54-0.14-0.97-0.43-1.28
		c-0.29-0.31-0.77-0.6-1.46-0.85c-1.96-0.75-2.95-1.96-2.95-3.62c0-1.05,0.38-1.94,1.14-2.66c0.76-0.72,1.74-1.08,2.96-1.08
		c1.31,0,2.43,0.3,3.35,0.91l-0.72,1.7c-0.59-0.48-1.28-0.72-2.06-0.72c-0.58,0-1.03,0.16-1.35,0.49c-0.33,0.33-0.49,0.73-0.49,1.21
		c0,0.85,0.64,1.53,1.92,2.04C156.53,32.75,157.56,34.02,157.56,35.72"/>
	<path class="st1" d="M163.27,22.85c0,0.4-0.16,0.74-0.47,1.02c-0.31,0.28-0.69,0.42-1.14,0.42c-0.45,0-0.83-0.14-1.14-0.42
		c-0.31-0.28-0.47-0.62-0.47-1.02c0-0.4,0.16-0.74,0.47-1.03c0.31-0.29,0.69-0.43,1.14-0.43c0.45,0,0.83,0.14,1.14,0.42
		C163.12,22.09,163.27,22.43,163.27,22.85 M163.12,39.44h-2.92V26.52h2.92V39.44z"/>
	<path class="st1" d="M176.39,38.74c-1.12,0.62-2.62,0.93-4.5,0.93c-1.9,0-3.38-0.58-4.43-1.73c-1.05-1.15-1.58-2.76-1.58-4.82
		c0-2.08,0.53-3.73,1.58-4.96c1.02-1.18,2.38-1.77,4.07-1.77c0.75,0,1.4,0.08,1.94,0.25v-5.21h2.92V38.74z M173.47,37.51v-9.3
		c-0.38-0.11-0.81-0.17-1.29-0.17c-2.27,0-3.4,1.64-3.4,4.91c0,3.23,1.06,4.84,3.19,4.84C172.66,37.8,173.17,37.7,173.47,37.51"/>
	<path class="st1" d="M188.83,38.74c-1.16,0.62-2.72,0.93-4.67,0.93c-3.51,0-5.27-1.31-5.27-3.93c0-1.56,0.71-2.74,2.13-3.52
		c1.12-0.61,2.81-1.02,5.08-1.24v-0.69c0-1.42-0.85-2.13-2.56-2.13c-1.07,0-2.15,0.26-3.23,0.78l-0.67-1.68
		c1.34-0.65,2.82-0.98,4.43-0.98c3.18,0,4.76,1.49,4.76,4.45V38.74z M186.1,37.69v-5.32c-1.53,0.19-2.61,0.49-3.25,0.89
		c-0.8,0.5-1.2,1.29-1.2,2.4c0,1.6,0.9,2.4,2.7,2.4C185.04,38.05,185.62,37.93,186.1,37.69"/>
	<path class="st1" d="M201.98,38.74c-1.12,0.62-2.62,0.93-4.5,0.93c-1.9,0-3.38-0.58-4.43-1.73c-1.05-1.15-1.58-2.76-1.58-4.82
		c0-2.08,0.53-3.73,1.58-4.96c1.02-1.18,2.38-1.77,4.08-1.77c0.75,0,1.4,0.08,1.94,0.25v-5.21h2.92V38.74z M199.06,37.51v-9.3
		c-0.38-0.11-0.81-0.17-1.29-0.17c-2.27,0-3.4,1.64-3.4,4.91c0,3.23,1.06,4.84,3.19,4.84C198.26,37.8,198.76,37.7,199.06,37.51"/>
	<path class="st1" d="M83.47,21.46h3.11v13.89c0,1.53,0.82,2.29,2.47,2.29c0.78,0,1.49-0.13,2.14-0.38v-15.8h3.11V38.6
		c-1.41,0.66-3.2,0.99-5.37,0.99c-1.92,0-3.34-0.42-4.25-1.27c-0.8-0.71-1.2-1.69-1.2-2.93V21.46z"/>
</g>
</svg>
